<?xml version="1.0" encoding="UTF-8"?>
<svg id="Layer_1" xmlns="http://www.w3.org/2000/svg" xmlns:xlink="http://www.w3.org/1999/xlink" version="1.1" viewBox="0 0 240 60">
  <!-- Generator: Adobe Illustrator 29.1.0, SVG Export Plug-In . SVG Version: 2.1.0 Build 142)  -->
  <defs>
    <style>
      .st0, .st1, .st2 {
        isolation: isolate;
      }

      .st0, .st3 {
        fill: #4a90e2;
      }

      .st0, .st4, .st2 {
        font-family: Arial-Black, 'Arial Black';
        font-size: 30px;
        font-weight: 800;
        letter-spacing: 0em;
      }

      .st5 {
        fill: url(#linear-gradient);
        stroke: #4a90e2;
        stroke-width: 2px;
      }

      .st6 {
        fill: #fff;
      }

      .st2 {
        fill: #2171cd;
      }
    </style>
    <linearGradient id="linear-gradient" x1="-382.5" y1="532.5" x2="-381.5" y2="531.5" gradientTransform="translate(17607 24504) scale(46 -46)" gradientUnits="userSpaceOnUse">
      <stop offset="0" stop-color="#4a90e2"/>
      <stop offset="1" stop-color="#2171cd"/>
    </linearGradient>
  </defs>
  <circle class="st5" cx="35" cy="30" r="23"/>
  <g class="st1">
    <text class="st0" transform="translate(75 40)"><tspan x="0" y="0">B</tspan></text>
    <text class="st4" transform="translate(99.1 40)"><tspan x="0" y="0"> </tspan></text>
    <text class="st2" transform="translate(109.9 40)"><tspan x="0" y="0">ONLINE</tspan></text>
  </g>
  <g>
    <circle class="st3" cx="75" cy="45" r="1.5"/>
    <circle class="st3" cx="81" cy="45" r="1.5"/>
    <circle class="st3" cx="87" cy="45" r="1.5"/>
  </g>
  <g>
    <path class="st6" d="M20.3,29.6c1.3,0,1.5-.7,1.5-1.4s0-1.1-.2-1.6c0-.5-.2-1-.2-1.6,0-1.7,1.1-2.5,2.8-2.5h.4v1h-.3c-1.1,0-1.5.6-1.5,1.6s0,.9.1,1.3c0,.5.1.9.1,1.4,0,1.2-.5,1.8-1.4,2.1h0c.9.2,1.4.9,1.4,2.1,0,.5,0,1-.1,1.4,0,.5-.1.9-.1,1.4,0,1.1.4,1.7,1.5,1.7h.3v1h-.4c-1.6,0-2.8-.7-2.8-2.6s0-1,.2-1.6c0-.5.2-1,.2-1.5s-.2-1.4-1.5-1.4v-1Z"/>
    <path class="st6" d="M30.1,34.6c0-.7.5-1.2,1.1-1.2s1.1.5,1.1,1.2-.4,1.2-1.1,1.2-1.1-.5-1.1-1.2Z"/>
    <path class="st6" d="M34.1,34.6c0-.7.5-1.2,1.1-1.2s1.1.5,1.1,1.2-.4,1.2-1.1,1.2-1.1-.5-1.1-1.2Z"/>
    <path class="st6" d="M38,34.6c0-.7.5-1.2,1.1-1.2s1.1.5,1.1,1.2-.4,1.2-1.1,1.2-1.1-.5-1.1-1.2Z"/>
    <path class="st6" d="M49.8,30.6c-1.3,0-1.5.8-1.5,1.4s0,1,.2,1.5c0,.5.2,1,.2,1.6,0,1.9-1.2,2.6-2.8,2.6h-.4v-1h.3c1.1,0,1.5-.6,1.5-1.7s0-.9-.1-1.4c0-.5-.2-.9-.2-1.4,0-1.2.5-1.9,1.4-2.1h0c-.8-.3-1.4-.9-1.4-2.1s0-1,.2-1.4c0-.5.1-.9.1-1.3,0-1-.4-1.6-1.5-1.6h-.3v-1h.4c1.6,0,2.8.7,2.8,2.5s0,1-.2,1.6c0,.5-.2,1.1-.2,1.6s.2,1.4,1.5,1.4v1Z"/>
  </g>
</svg>