<?xml version="1.0" encoding="UTF-8"?>
<svg id="Layer_1" data-name="Layer 1" xmlns="http://www.w3.org/2000/svg" viewBox="0 0 914.13 321.53">
  <defs>
    <style>
      .cls-1 {
        fill: #376ab3;
      }
    </style>
  </defs>
  <g>
    <path class="cls-1" d="M914.12,160.95c0,18.25-.01,36.5,0,54.76.02,18.7-8.11,33.41-23.81,42.84-32.19,19.34-64.77,38.04-97.48,56.47-16.1,9.07-32.98,8.47-48.97-.57-31.59-17.85-63.04-35.94-94.27-54.4-16.89-9.99-26.03-24.97-25.97-45.1.1-36.18.05-72.37.02-108.55-.02-19.66,8.74-34.57,25.37-44.42,31.77-18.81,63.66-37.43,95.89-55.44,15.68-8.76,32.49-8.73,48.23.14,32.17,18.12,64.12,36.64,95.88,55.46,16.46,9.76,25.14,24.58,25.12,44.06-.03,18.25,0,36.5,0,54.76ZM889.69,160.79c0-17.76,0-35.52,0-53.27,0-10.63-4.43-18.95-13.61-24.3-31.2-18.17-62.48-36.23-93.79-54.22-8.73-5.02-17.77-5.08-26.52-.06-31.32,17.97-62.62,35.98-93.83,54.12-9.32,5.42-13.85,13.8-13.84,24.66.04,35.22.05,70.45,0,105.67-.02,11.21,4.56,19.64,14.34,25.29,30.98,17.9,61.9,35.92,92.91,53.78,8.69,5,17.83,5.3,26.56.3,31.6-18.11,63.12-36.35,94.56-54.73,9-5.26,13.24-13.57,13.23-24.01-.01-17.74,0-35.49,0-53.23Z"/>
    <path class="cls-1" d="M702.95,213.17c-5.99-.78-9.91-3.6-11.98-9.09-1.86-4.94-.57-9.79,3.98-13.73,10.28-8.89,20.56-17.78,31.05-26.43,3.21-2.65,2.82-4.04-.15-6.5-10.47-8.66-20.75-17.55-31.04-26.42-3.79-3.27-5.55-7.47-4.3-12.45,1.23-4.88,4.4-8.07,9.37-9.28,4.68-1.14,8.46.82,11.87,3.71,13.3,11.26,26.57,22.55,39.85,33.82,1.83,1.55,3.76,3,5.48,4.66,5.61,5.44,5.67,13.56-.21,18.62-15.27,13.14-30.65,26.15-46.12,39.05-2.2,1.83-5.18,2.71-7.8,4.04Z"/>
    <path class="cls-1" d="M807.19,212.2c-9.75,0-19.51.14-29.26-.05-6.09-.12-10.65-4.88-11.16-11.03-.47-5.65,3.39-11.28,8.84-12.73,1.38-.37,2.84-.57,4.26-.58,18.23-.04,36.46-.05,54.69-.01,5.4.01,9.55,2.23,11.93,7.29,2.03,4.32,1.76,8.76-1.36,12.08-2.19,2.33-5.66,4.61-8.7,4.8-9.71.6-19.49.22-29.24.22Z"/>
  </g>
  <g>
    <path class="cls-1" d="M91.51,226.58h-1.31c-2.68,0-5.78-1.04-9.3-3.12-3.52-2.08-6.12-4.26-7.79-6.54-2.15-3.08-4.06-6.8-5.73-11.16-7.58,15.82-19.68,23.73-36.3,23.73-9.12,0-16.73-4.42-22.83-13.27-5.5-7.91-8.25-16.59-8.25-26.05,0-8.25,1.94-16.83,5.83-25.74,5.16-12.13,12-18.2,20.51-18.2,2.48,0,4.79.97,6.94,2.92,2.14,1.95,3.22,4.12,3.22,6.54,0,2.21-2.08,5.13-6.23,8.75-6.23,5.36-9.92,8.72-11.06,10.06-4.16,4.63-6.23,9.49-6.23,14.58,0,6.64,1.84,12.2,5.53,16.69,3.89,4.83,9.05,7.24,15.49,7.24,7.58,0,13.84-3.79,18.8-11.36,4.09-6.24,6.13-12.87,6.13-19.91,0-4.63-1.24-10.79-3.72-18.5-2.48-7.71-3.72-12.74-3.72-15.08,0-1.14.7-2.51,2.11-4.12,1.81-2.21,3.92-3.32,6.34-3.32,2.88,0,4.96,1.84,6.23,5.53l1.61,8.25c3.28,15.69,5.43,25.51,6.44,29.46,2.01,8.04,3.85,13.74,5.53,17.1.8,1.61,2.28,3.39,4.42,5.33,2.41,2.21,4.36,3.32,5.83,3.32h1.51v16.89ZM45.75,191.59c0,1.81-.7,3.65-2.11,5.53-1.54,2.08-3.19,3.12-4.93,3.12-2.61,0-5.46-1.59-8.55-4.78-3.08-3.18-4.63-6.12-4.63-8.8,0-5.63,2.55-8.45,7.64-8.45,8.38,0,12.57,4.46,12.57,13.38Z"/>
    <path class="cls-1" d="M110.21,244.48c.07.8.1,1.54.1,2.21,0,4.02-1.68,6.03-5.03,6.03-1.41,0-3.54-.17-6.39-.5-2.85-.34-4.98-.5-6.39-.5-.94,0-2.7.33-5.28,1.01-2.58.67-4.54,1.01-5.88,1.01-3.15,0-4.46-1.84-3.92-5.53,1.07-7.31,7.11-10.96,18.1-10.96,9.18,0,14.08,2.41,14.68,7.24ZM116.15,190.38c0,10.19-2.05,18.47-6.13,24.84-4.83,7.58-12.03,11.36-21.62,11.36v-16.89c8.78,0,13.17-5.43,13.17-16.29,0-1.41-.07-2.92-.2-4.52-.07-.8-4.12-15.75-12.17-44.85-.13-.54-.2-.97-.2-1.31,0-2.01.91-3.02,2.72-3.02.8,0,1.61.34,2.41,1.01,1.47,1.34,3.25,5.53,5.33,12.57.4-.8.6-1.78.6-2.92,0-.07-.6-3.28-1.81-9.65-.34-1.67.27-2.51,1.81-2.51.74,0,1.37.5,1.91,1.51,9.45,16.63,14.18,33.52,14.18,50.68Z"/>
    <path class="cls-1" d="M191.37,101.59c0,10.73-1.24,23.63-3.72,38.72-2.15,13.27-4.46,24.1-6.94,32.48-12.47,42.17-22.02,62.58-28.66,61.24-4.02,0-6.03-1.71-6.03-5.13,0-1.81,1.24-5.73,3.72-11.77,2.14-5.23,4.69-11.63,7.64-19.21l7.04-20.51c-4.02,3.02-7.48,4.53-10.36,4.53-1.74,0-3.05-.7-3.92-2.11-7.31-11.87-13.54-24.77-18.7-38.72-4.36-11.8-6.54-20.58-6.54-26.35,0-2.35.85-4.54,2.56-6.59,1.71-2.04,3.74-3.07,6.08-3.07,2.21,1.07,5.23,7.64,9.05,19.71,5.77,18.44,9.18,28.96,10.26,31.58,4.02,9.59,8.04,14.38,12.07,14.38.4,0,.84-.07,1.31-.2,1.47-3.89,3.42-13.17,5.83-27.86.87-5.43,1.41-14.68,1.61-27.75.2-12.47.67-20.85,1.41-25.14,1.27-7.24,4.02-10.86,8.25-10.86,5.36,0,8.04,7.54,8.04,22.63Z"/>
    <path class="cls-1" d="M312.44,190.38c0,9.39-2.31,17.6-6.94,24.64-5.5,8.25-12.84,12.37-22.02,12.37-11.93,0-21.32-4.32-28.16-12.97-6.23-7.91-9.35-18-9.35-30.27,0-17.97,2.75-27.59,8.25-28.86,1.07-.2,1.61.24,1.61,1.31,0,.87-.49,2.73-1.46,5.58-.97,2.85-1.46,4.94-1.46,6.29,0,1.01.23,1.78.7,2.31,3.15-8.51,5.66-12.77,7.54-12.77.87,0,1.64.47,2.31,1.41.13.14-.34,2.21-1.41,6.23-1.54,5.57-2.31,12.57-2.31,21.02,0,6.5,1.88,12.3,5.63,17.4,4.16,5.57,9.42,8.35,15.79,8.35,6.03,0,10.62-3.45,13.78-10.36,2.08-4.42,3.12-8.31,3.12-11.67,0-7.98-2.55-16.42-7.64-25.34-4.22-7.44-9.08-13.64-14.58-18.6-.67-1.07-.94-2.31-.8-3.72.13-1.61.67-2.61,1.61-3.02,1.01-.47,3.05.7,6.13,3.52,1.74,1.61,4.29,3.99,7.64,7.14-2.08-5.36-6-10.09-11.77-14.18,1.41-.94,2.85-1.41,4.32-1.41,2.08,0,4.02.74,5.83,2.21,5.97,5.1,11.4,13.26,16.29,24.49,4.89,11.23,7.34,20.87,7.34,28.91ZM288,186.06c0,2.35-.89,4.41-2.66,6.18s-3.87,2.67-6.29,2.67-4.37-.89-6.08-2.67c-1.71-1.78-2.56-3.84-2.56-6.18,0-4.36,1.94-7.17,5.83-8.45,1.88-.67,2.82,2.61,2.82,9.85,1.21-2.82,1.91-5.43,2.11-7.84.07-.94.13-1.68.2-2.21,4.42,1.21,6.64,4.09,6.64,8.65Z"/>
    <path class="cls-1" d="M383.33,196.72c0,12-3.45,24-10.36,36-6.57,11.53-12.67,17.3-18.3,17.3-1.95,0-3.52-.8-4.73-2.41-1.81-2.41-2.72-4.32-2.72-5.73,0-1.27,1.04-2.82,3.12-4.63,3.89-3.35,6.64-5.87,8.25-7.54,3.82-4.16,5.73-7.04,5.73-8.65-.14,0-.94.37-2.41,1.11-1.48.74-2.85,1.11-4.12,1.11-7.71,0-14.58-3.75-20.61-11.26-5.5-6.84-9.02-15.02-10.56-24.54-.4-2.55-.6-5.16-.6-7.84,0-6.44,1.21-13.51,3.62-21.22,3.08-10.12,7.11-15.18,12.07-15.18,3.82,0,9.18,1.78,16.09,5.33.2,0,.3-.07.3-.2,0-.4-1.04-1.41-3.12-3.02-2.82-2.15-5.67-3.55-8.55-4.22,11.8,0,21.22,6.64,28.26,19.91,5.77,10.86,8.65,22.76,8.65,35.7ZM369.86,196.72c.13-.6.2-1.31.2-2.11,0-4.42-2.05-11.2-6.13-20.31-5.23-11.67-10.59-17.5-16.09-17.5s-7.84,8.15-7.84,24.44c0,7.44,2.41,13.91,7.24,19.41,4.09,4.69,8.01,7.04,11.77,7.04.94-3.02,1.81-6.13,2.61-9.35.74-1.61,2.28-2.41,4.63-2.41.47,0,1.09.13,1.86.4.77.27,1.36.4,1.76.4Z"/>
    <path class="cls-1" d="M415.61,62.27c0,2.68-1.44,5.87-4.32,9.55-2.95,3.89-5.7,5.83-8.25,5.83-4.02-3.28-6.03-5.73-6.03-7.34,0-2.21,1.57-4.89,4.73-8.04-1.34-1.27-3.19-2.92-5.53-4.93-1.21-1.07-1.81-2.31-1.81-3.72,0-4.29,4.06-9.18,12.17-14.68h6.13l-1.01,1.71c-1.95,1.48-4.56,4.22-7.84,8.25,2.48-.87,6.1-1.91,10.86-3.12-.67,2.41-1.74,4.53-3.22,6.34-2.08,2.48-3.25,3.99-3.52,4.53,1.14.34,2.61,1.07,4.42,2.21,2.14,1.34,3.22,2.48,3.22,3.42ZM433.72,217.73c.4,1.95.13,3.86-.8,5.73-1.07,2.08-2.58,3.12-4.53,3.12-4.96,0-8.15-2.88-9.55-8.65-.8-4.69-2.18-11.7-4.12-21.02-10.12-45.65-15.18-79.44-15.18-101.37,0-6.84.67-10.39,2.01-10.66,1.41-.33,2.38,3.52,2.92,11.56.6,9.19,2.04,14.88,4.32,17.1-.94-7.17-1.41-13.24-1.41-18.2,0-6.03.8-9.05,2.41-9.05,1.94,0,3.18,1.58,3.72,4.73.13,2.35.27,4.69.4,7.04,3.49,36.6,10.09,76.49,19.81,119.67Z"/>
    <path class="cls-1" d="M555.09,226.58h-1.21c-3.55,0-5.9-.67-7.04-2.01l-2.21-2.31c-2.48-2.48-4.06-3.72-4.73-3.72-1.01,0-1.51.47-1.51,1.41,0-.47,1.54,1.44,4.63,5.73,2.14,2.95,3.49,4.96,4.02,6.03,1.81,3.55,2.71,7.54,2.71,11.97,0,6.24-2.01,12.03-6.03,17.4-4.36,5.76-9.55,8.68-15.59,8.75-8.72.07-16.36-3.72-22.93-11.36-7.64-8.85-11.4-20.78-11.26-35.8,0-5.36.87-11.46,2.61-18.3,2.28-8.92,5.16-13.38,8.65-13.38,1.41,0,2.8.8,4.17,2.41,1.37,1.61,2.06,3.12,2.06,4.53,0,1.54-1.17,4.93-3.52,10.16-1.81,4.09-2.71,8.95-2.71,14.58.13,7.64,1.94,14.38,5.43,20.21,3.82,6.44,8.88,9.65,15.18,9.65,2.88,0,5.36-1.11,7.44-3.32,2.08-2.21,3.12-4.73,3.12-7.54,0-4.76-.91-8.08-2.71-9.96-1.01-1.07-3.12-1.95-6.34-2.62-3.49-.8-6.1-1.78-7.84-2.92-2.61-1.67-4.06-4.49-4.32-8.45-.27-3.82,1.64-6.97,5.73-9.45,3.28-2.01,6.44-3.05,9.45-3.12,2.41-.07,5.09.34,8.04,1.21,4.76,1.41,7.37,2.18,7.84,2.31,3.02.67,5.56,1,7.64,1h1.21v16.89ZM544.83,281.59c0,3.82-1.88,5.73-5.63,5.73-.94,0-1.81-.2-2.61-.6-2.48-1.21-4.56-1.81-6.24-1.81-4.29,0-7.78.94-10.46,2.82-1.14.87-2.25,1.31-3.32,1.31-3.82,0-5.73-2.01-5.73-6.03,0-1.81.87-3.32,2.61-4.53,4.83-3.29,10.39-4.93,16.69-4.93,3.35,0,7.14,1.04,11.36,3.12,2.21,1.07,3.32,2.71,3.32,4.93Z"/>
    <path class="cls-1" d="M579.63,190.38c0,10.19-2.05,18.47-6.13,24.84-4.83,7.58-12.03,11.36-21.62,11.36v-16.89c8.78,0,13.17-5.43,13.17-16.29,0-1.41-.07-2.92-.2-4.52-.07-.8-4.12-15.75-12.17-44.85-.13-.54-.2-.97-.2-1.31,0-2.01.91-3.02,2.71-3.02s3.72,2.58,5.53,7.74c1.34,3.89,2.21,5.83,2.61,5.83.47,0,.7-.4.7-1.21,0-1.67-.84-5.46-2.51-11.36-.27-1.67.4-2.51,2.01-2.51.74,0,1.37.5,1.91,1.51,9.45,16.63,14.18,33.52,14.18,50.68ZM574.3,241.37c0,2.82-.96,5.18-2.87,7.09-1.91,1.91-4.24,2.87-6.99,2.87-2.88,0-5.26-.97-7.14-2.92-1.88-1.95-2.82-4.36-2.82-7.24,0-3.22,1.17-5.73,3.52-7.54,1.88-1.54,4.02-2.31,6.44-2.31,2.88,0,5.25.97,7.09,2.92,1.84,1.94,2.76,4.32,2.76,7.14Z"/>
  </g>
</svg>