<?xml version="1.0" encoding="UTF-8"?>
<svg id="Layer_1" data-name="Layer 1" xmlns="http://www.w3.org/2000/svg" viewBox="0 0 608.38 120.79">
  <defs>
    <style>
      .cls-1 {
        fill: #183e6d;
      }

      .cls-2 {
        fill: #fff;
      }

      .cls-3 {
        fill: #6899ca;
      }
    </style>
  </defs>
  <circle class="cls-1" cx="60.39" cy="60.39" r="60.39"/>
  <g>
    <path class="cls-3" d="M162.27,102.52V19.01h30.4c9.32,0,16.48,1.71,21.49,5.12,5.01,3.42,7.51,8.23,7.51,14.44,0,4.5-1.52,8.44-4.57,11.82-3.05,3.38-6.94,5.73-11.68,7.05v.23c5.94.74,10.69,2.93,14.24,6.58,3.55,3.65,5.33,8.09,5.33,13.33,0,7.65-2.74,13.71-8.21,18.2-5.47,4.49-12.95,6.73-22.42,6.73h-32.09ZM181.08,32.87v19.8h8.27c3.88,0,6.94-.94,9.17-2.83,2.23-1.88,3.35-4.47,3.35-7.77,0-6.13-4.58-9.2-13.74-9.2h-7.05ZM181.08,66.65v22.01h10.19c4.35,0,7.76-1.01,10.22-3.03,2.46-2.02,3.7-4.78,3.7-8.27s-1.21-5.96-3.64-7.86c-2.43-1.9-5.81-2.85-10.16-2.85h-10.31Z"/>
    <path class="cls-3" d="M298.24,103.97c-9.94,0-17.75-2.78-23.44-8.36-5.69-5.57-8.53-13.13-8.53-22.68s2.95-17.57,8.85-23.15c5.9-5.57,13.88-8.36,23.93-8.36s17.66,2.79,23.29,8.36c5.63,5.57,8.44,12.94,8.44,22.1,0,9.9-2.9,17.72-8.71,23.47-5.8,5.74-13.75,8.62-23.84,8.62ZM298.71,55.52c-4.35,0-7.72,1.5-10.13,4.48-2.41,2.99-3.61,7.22-3.61,12.7,0,11.45,4.62,17.18,13.86,17.18s13.22-5.88,13.22-17.64c0-11.14-4.44-16.71-13.33-16.71Z"/>
    <path class="cls-3" d="M400.32,102.52h-18.34v-33.13c0-9.24-3.3-13.86-9.9-13.86-3.18,0-5.8,1.22-7.86,3.67-2.06,2.45-3.09,5.55-3.09,9.32v34.01h-18.4v-59.63h18.4v9.44h.23c4.39-7.26,10.77-10.89,19.16-10.89,13.2,0,19.8,8.19,19.8,24.57v36.51Z"/>
    <path class="cls-3" d="M433.28,102.52h-18.4V14.24h18.4v88.28Z"/>
    <path class="cls-3" d="M458.09,33.45c-3.11,0-5.65-.92-7.63-2.76-1.98-1.84-2.97-4.11-2.97-6.78s.99-5.01,2.97-6.76c1.98-1.75,4.52-2.62,7.63-2.62s5.7.87,7.66,2.62c1.96,1.75,2.94,4,2.94,6.76s-.98,5.09-2.94,6.87c-1.96,1.79-4.51,2.68-7.66,2.68ZM467.17,102.52h-18.4v-59.63h18.4v59.63Z"/>
    <path class="cls-3" d="M540.25,102.52h-18.34v-33.13c0-9.24-3.3-13.86-9.9-13.86-3.18,0-5.8,1.22-7.86,3.67-2.06,2.45-3.09,5.55-3.09,9.32v34.01h-18.4v-59.63h18.4v9.44h.23c4.39-7.26,10.77-10.89,19.16-10.89,13.2,0,19.8,8.19,19.8,24.57v36.51Z"/>
    <path class="cls-3" d="M604.78,77.94h-35.3c.62,8.66,6.07,12.99,16.36,12.99,6.56,0,12.32-1.55,17.29-4.66v13.28c-5.51,2.95-12.68,4.42-21.49,4.42-9.63,0-17.1-2.67-22.42-8.01-5.32-5.34-7.98-12.78-7.98-22.33s2.87-17.74,8.62-23.53c5.74-5.78,12.81-8.68,21.2-8.68s15.42,2.58,20.18,7.74c4.76,5.17,7.13,12.17,7.13,21.02v4.15c0,1.99-1.61,3.6-3.6,3.6ZM591.32,66.65c0-8.54-3.46-12.81-10.37-12.81-2.95,0-5.5,1.22-7.66,3.67-2.16,2.44-3.47,5.49-3.93,9.14h21.95Z"/>
  </g>
  <g>
    <path class="cls-2" d="M66.05,66.34v-5.74l7.8-3.86-7.77-3.87-.03-5.7,14.85,7.19v4.8l-14.85,7.18Z"/>
    <path class="cls-2" d="M37.75,59.17v-4.8s14.85-7.19,14.85-7.19l-.03,5.7-7.77,3.87,7.8,3.86v5.74s-14.85-7.18-14.85-7.18Z"/>
    <rect class="cls-2" x="46.97" y="86.87" width="25.94" height="5.52"/>
    <rect class="cls-2" x="40.64" y="95.79" width="39.83" height="5.52"/>
    <rect class="cls-2" x="61.65" y="90.03" width="14.44" height="8.1" transform="translate(-25.22 162.95) rotate(-90)"/>
    <path class="cls-2" d="M21.57,56.74s4.74,2.2,4.99,8.42v7.56c0,.32-.01.62,0,.91.15,4.96,2.88,5.73,4.11,5.83.36.03.59,0,.59,0h10.58v6.3h-13.2s-.88-.01-2.08-.43c-1.79-.62-4.28-2.14-5.58-5.87-.51-1.44-.83-3.21-.88-5.38v-7.89c0-3.02-1.98-5.48-4.45-5.54-.01,0-.02,0-.03,0-.05,0-.07,0-.07,0v-7.8c.56,0,1.1-.12,1.59-.35.87-.37,1.49-.99,1.92-1.67.02-.03.03-.05.05-.08.61-.94.98-2.12.99-3.41,0-.02,0-.03,0-.05v-8.95c0-.28.03-2.16.8-4.28.81-2.23,2.42-4.72,5.66-5.91.4-.15.84-.28,1.29-.39h13.98v6.3h-11.04c-4.12.51-4.24,5.16-4.24,5.16v9.01s-.21,6.33-4.99,8.51Z"/>
    <path class="cls-2" d="M99.21,56.74s-4.74,2.2-4.99,8.42v7.56c0,.32.01.62,0,.91-.15,4.96-2.88,5.73-4.11,5.83-.36.03-.59,0-.59,0h-10.58s0,6.3,0,6.3h13.2s.88-.01,2.08-.43c1.79-.62,4.28-2.14,5.58-5.87.51-1.44.83-3.21.88-5.38v-7.89c0-3.02,1.98-5.48,4.45-5.54.01,0,.02,0,.03,0,.05,0,.07,0,.07,0v-7.8c-.56,0-1.1-.12-1.59-.35-.87-.37-1.49-.99-1.92-1.67-.02-.03-.03-.05-.05-.08-.61-.94-.98-2.12-.99-3.41,0-.02,0-.03,0-.05v-8.92s0-.01,0-.03c0-.28-.03-2.16-.8-4.28-.81-2.23-2.42-4.72-5.66-5.91-.4-.15-.84-.28-1.29-.39h-13.98s0,6.3,0,6.3h11.04c4.12.51,4.24,5.16,4.24,5.16v9.01s.21,6.33,4.99,8.51Z"/>
  </g>
</svg>